HIERARCHY
ROOT hip
{
  OFFSET 0 0 0
  CHANNELS 6 Xposition Yposition Zposition Zrotation Yrotation Xrotation
  JOINT abdomen
  {
    OFFSET 0 20.6881 -0.73152
    CHANNELS 3 Zrotation Xrotation Yrotation
    JOINT chest
    {
      OFFSET 0 11.7043 -0.48768
      CHANNELS 3 Zrotation Xrotation Yrotation
      JOINT neck
      {
        OFFSET 0 22.1894 -2.19456
        CHANNELS 3 Zrotation Xrotation Yrotation
        JOINT head
        {
          OFFSET -0.24384 7.07133 1.2192
          CHANNELS 3 Zrotation Xrotation Yrotation
          JOINT leftEye
          {
            OFFSET 4.14528 8.04674 8.04672
            CHANNELS 3 Zrotation Xrotation Yrotation
            End Site
            {
              OFFSET 1 0 0
            }
          }
          JOINT rightEye
          {
            OFFSET -3.6576 8.04674 8.04672
            CHANNELS 3 Zrotation Xrotation Yrotation
            End Site
            {
              OFFSET 1 0 0
            }
          }
        }
      }
      JOINT rCollar
      {
        OFFSET -2.68224 19.2634 -4.8768
        CHANNELS 3 Zrotation Xrotation Yrotation
        JOINT rShldr
        {
          OFFSET -8.77824 -1.95073 1.46304
          CHANNELS 3 Zrotation Xrotation Yrotation
          JOINT rForeArm
          {
            OFFSET -28.1742 -1.7115 0.48768
            CHANNELS 3 Zrotation Xrotation Yrotation
            JOINT rHand
            {
              OFFSET -22.5879 0.773209 7.07136
              CHANNELS 3 Zrotation Xrotation Yrotation
              JOINT rThumb1
              {
                OFFSET -1.2192 -0.487915 3.41376
                CHANNELS 3 Zrotation Xrotation Yrotation
                JOINT rThumb2
                {
                  OFFSET -3.37035 -0.52449 3.41376
                  CHANNELS 3 Zrotation Xrotation Yrotation
                  End Site
                  {
                    OFFSET -1.78271 -1.18214 1.43049
                  }
                }
              }
              JOINT rIndex1
              {
                OFFSET -7.75947 0.938293 5.60832
                CHANNELS 3 Zrotation Xrotation Yrotation
                JOINT rIndex2
                {
                  OFFSET -2.54057 -0.884171 1.56538
                  CHANNELS 3 Zrotation Xrotation Yrotation
                  End Site
                  {
                    OFFSET -1.62519 -0.234802 1.16502
                  }
                }
              }
              JOINT rMid1
              {
                OFFSET -8.24714 1.18213 3.41376
                CHANNELS 3 Zrotation Xrotation Yrotation
                JOINT rMid2
                {
                  OFFSET -3.10165 -0.590103 1.0647
                  CHANNELS 3 Zrotation Xrotation Yrotation
                  End Site
                  {
                    OFFSET -2.48547 -0.328903 0.83742
                  }
                }
              }
              JOINT rRing1
              {
                OFFSET -8.82822 0.546677 1.51678
                CHANNELS 3 Zrotation Xrotation Yrotation
                JOINT rRing2
                {
                  OFFSET -2.60934 -0.819778 -0.0198488
                  CHANNELS 3 Zrotation Xrotation Yrotation
                  End Site
                  {
                    OFFSET -2.33842 -0.294052 0.168128
                  }
                }
              }
              JOINT rPinky1
              {
                OFFSET -8.27202 -0.0477905 -0.4584
                CHANNELS 3 Zrotation Xrotation Yrotation
                JOINT rPinky2
                {
                  OFFSET -1.82734 -0.647385 -0.700984
                  CHANNELS 3 Zrotation Xrotation Yrotation
                  End Site
                  {
                    OFFSET -1.69225 -0.51767 -0.607171
                  }
                }
              }
            }
          }
        }
      }
      JOINT lCollar
      {
        OFFSET 2.68224 19.2634 -4.8768
        CHANNELS 3 Zrotation Xrotation Yrotation
        JOINT lShldr
        {
          OFFSET 8.77824 -1.95073 1.46304
          CHANNELS 3 Zrotation Xrotation Yrotation
          JOINT lForeArm
          {
            OFFSET 28.1742 -1.7115 0.48768
            CHANNELS 3 Zrotation Xrotation Yrotation
            JOINT lHand
            {
              OFFSET 22.5879 0.773209 7.07136
              CHANNELS 3 Zrotation Xrotation Yrotation
              JOINT lThumb1
              {
                OFFSET 1.2192 -0.487915 3.41376
                CHANNELS 3 Zrotation Xrotation Yrotation
                JOINT lThumb2
                {
                  OFFSET 3.37035 -0.52449 3.41376
                  CHANNELS 3 Zrotation Xrotation Yrotation
                  End Site
                  {
                    OFFSET 1.78271 -1.18214 1.43049
                  }
                }
              }
              JOINT lIndex1
              {
                OFFSET 7.75947 0.938293 5.60832
                CHANNELS 3 Zrotation Xrotation Yrotation
                JOINT lIndex2
                {
                  OFFSET 2.54057 -0.884171 1.56538
                  CHANNELS 3 Zrotation Xrotation Yrotation
                  End Site
                  {
                    OFFSET 1.62519 -0.234802 1.16502
                  }
                }
              }
              JOINT lMid1
              {
                OFFSET 8.24714 1.18213 3.41376
                CHANNELS 3 Zrotation Xrotation Yrotation
                JOINT lMid2
                {
                  OFFSET 3.10165 -0.590103 1.0647
                  CHANNELS 3 Zrotation Xrotation Yrotation
                  End Site
                  {
                    OFFSET 2.48547 -0.328903 0.83742
                  }
                }
              }
              JOINT lRing1
              {
                OFFSET 8.82822 0.546677 1.51678
                CHANNELS 3 Zrotation Xrotation Yrotation
                JOINT lRing2
                {
                  OFFSET 2.60934 -0.819778 -0.0198488
                  CHANNELS 3 Zrotation Xrotation Yrotation
                  End Site
                  {
                    OFFSET 2.33842 -0.294052 0.168128
                  }
                }
              }
              JOINT lPinky1
              {
                OFFSET 8.27202 -0.0477905 -0.4584
                CHANNELS 3 Zrotation Xrotation Yrotation
                JOINT lPinky2
                {
                  OFFSET 1.82734 -0.647385 -0.700984
                  CHANNELS 3 Zrotation Xrotation Yrotation
                  End Site
                  {
                    OFFSET 1.69225 -0.51767 -0.607171
                  }
                }
              }
            }
          }
        }
      }
    }
  }
  JOINT rButtock
  {
    OFFSET -8.77824 4.35084 1.2192
    CHANNELS 3 Zrotation Xrotation Yrotation
    JOINT rThigh
    {
      OFFSET 0 -1.70687 -2.19456
      CHANNELS 3 Zrotation Xrotation Yrotation
      JOINT rShin
      {
        OFFSET 0 -36.8199 0.73152
        CHANNELS 3 Zrotation Xrotation Yrotation
        JOINT rFoot
        {
          OFFSET 0.73152 -45.1104 -5.12064
          CHANNELS 3 Zrotation Xrotation Yrotation
          End Site
          {
            OFFSET -1.1221 -3.69964 12.103
          }
        }
      }
    }
  }
  JOINT lButtock
  {
    OFFSET 8.77824 4.35084 1.2192
    CHANNELS 3 Zrotation Xrotation Yrotation
    JOINT lThigh
    {
      OFFSET 0 -1.70687 -2.19456
      CHANNELS 3 Zrotation Xrotation Yrotation
      JOINT lShin
      {
        OFFSET 0 -36.8199 0.73152
        CHANNELS 3 Zrotation Xrotation Yrotation
        JOINT lFoot
        {
          OFFSET -0.73152 -45.1104 -5.12064
          CHANNELS 3 Zrotation Xrotation Yrotation
          End Site
          {
            OFFSET 1.1221 -3.69964 12.103
          }
        }
      }
    }
  }
}
MOTION
Frames:	8
Frame Time:	0.00833333
40.1029 83.0696 145.432 0.0 0.0 0.0 -3.29161 -0.00200095 -0.0897121 -0.910492 0.0108276 -0.157566 7.68383e-14 7.95139e-16 -4.96961e-16 2.31103e-13 9.54166e-15 -1.4474e-15 -0.0 0.0 0.0 -0.0 0.0 0.0 3.9012e-14 1.04245e-16 -4.96962e-17 8.11619e-13 1.93194e-15 -1.59028e-15 1.39017e-11 -4.10351e-12 -2.19458e-13 1.59439e-10 4.5595e-12 -7.41069e-13 3.76008e-10 9.87351e-13 -2.09599e-12 6.49327e-10 1.70478e-12 -3.63458e-12 3.76012e-10 9.86767e-13 -2.10871e-12 7.73091 5.47488 0.417314 3.76008e-10 9.87264e-13 -2.09917e-12 2.90554 0.965183 0.102902 3.76012e-10 9.87463e-13 -2.09678e-12 10.2786 0.731801 0.0259123 3.76e-10 9.9114e-13 -2.08644e-12 2.22167 -0.733487 -0.20892 3.87153e-14 1.11428e-16 -3.97569e-16 8.10149e-13 1.73937e-15 -2.5842e-15 1.39626e-11 4.22179e-12 -2.38542e-13 1.59354e-10 -3.79363e-12 -7.02903e-13 3.75966e-10 9.33628e-13 -2.10553e-12 6.49291e-10 1.61254e-12 -3.64253e-12 3.75965e-10 9.34288e-13 -2.08326e-12 -7.73091 5.47488 -0.417314 3.75968e-10 9.32996e-13 -2.10553e-12 -2.90554 0.965183 -0.102902 3.75966e-10 9.33592e-13 -2.10235e-12 -10.2786 0.731801 -0.0259123 3.75978e-10 9.37866e-13 -2.10871e-12 -2.22167 -0.733487 0.20892 -2.03217e-16 0.0 -3.88251e-19 -2.14081 -1.93291 0.018372 -0.0078067 -2.07877 -0.0636258 -0.35584 4.00069 0.117265 2.03217e-16 0.0 3.88251e-19 -2.88107 -9.67714 0.339005 -0.0100187 11.9463 -0.261541 0.458876 -2.28003 -0.00599304
33.6047 80.417 137.232 -4.4996 -83.7886 21.9126 -4.08479 -8.00885 0.140841 -1.08537 1.42596 -0.07718 0.953998 -2.65021 0.391406 1.40082 3.39401 0.0351708 -0.0 0.0 0.0 -0.0 0.0 0.0 2.3525e-14 1.87905e-13 4.54099e-14 9.36558 -6.97484 3.69355 0.698384 16.4973 -40.6817 0.19724 10.0027 1.33251 3.73464e-10 1.31721e-10 -5.67616e-10 6.30393e-10 2.31079e-10 -9.82343e-10 3.73468e-10 1.31721e-10 -5.67628e-10 7.73091 5.47488 0.417314 3.73462e-10 1.31722e-10 -5.67617e-10 2.90554 0.965183 0.102902 3.7347e-10 1.31722e-10 -5.67618e-10 10.2786 0.731801 0.0259123 3.73458e-10 1.31725e-10 -5.6761e-10 2.22167 -0.733487 -0.20892 2.3295e-14 1.8791e-13 4.51459e-14 -20.5026 11.4099 1.50498 4.50022 -2.10375 -6.96384 -0.246819 -11.0602 1.45191 2.86719e-10 -5.33863e-11 -1.75092e-10 4.99984e-10 -9.19537e-11 -3.02394e-10 2.86716e-10 -5.33868e-11 -1.75075e-10 -7.73091 5.47488 -0.417314 2.86719e-10 -5.33875e-11 -1.75091e-10 -2.90554 0.965183 -0.102902 2.86716e-10 -5.33874e-11 -1.75088e-10 -10.2786 0.731801 -0.0259123 2.86728e-10 -5.33824e-11 -1.75093e-10 -2.22167 -0.733487 0.20892 -2.03217e-16 0.0 -3.88251e-19 -3.29752 -7.95497 5.92303 0.0210547 4.33077 0.140077 -1.37431 0.375726 -6.47366 2.03217e-16 0.0 3.88251e-19 2.60787 -9.85888 0.370751 -0.0125281 12.31 -0.289471 0.621872 -2.46227 -0.0166386
33.6039 80.4185 137.232 -4.6639 -83.7596 22.0735 -4.85237 -16.4765 0.400069 -1.27415 2.92386 0.00853447 2.00506 -5.449 0.805842 2.87154 6.98378 0.0676582 -0.0 0.0 0.0 -0.0 0.0 0.0 7.39212e-15 3.93347e-13 9.43979e-14 20.2337 -14.1957 7.76005 16.6219 7.21181 -82.4426 -0.137262 20.7433 2.91098 3.84012e-10 2.64022e-10 -1.17968e-09 6.32749e-10 4.63445e-10 -2.0418e-09 3.84016e-10 2.64024e-10 -1.17969e-09 7.73091 5.47488 0.417314 3.8401e-10 2.64024e-10 -1.17968e-09 2.90554 0.965183 0.102902 3.84021e-10 2.64024e-10 -1.17968e-09 10.2786 0.731801 0.0259123 3.8401e-10 2.64026e-10 -1.17968e-09 2.22167 -0.733487 -0.20892 7.23144e-15 3.9335e-13 9.42239e-14 -42.8799 23.4319 3.30363 8.70105 -4.22047 -14.3481 0.147997 -22.7114 3.17601 1.97841e-10 -1.1108e-10 -3.58478e-10 3.51568e-10 -1.91238e-10 -6.18922e-10 1.97837e-10 -1.11082e-10 -3.58468e-10 -7.73091 5.47488 -0.417314 1.9784e-10 -1.11082e-10 -3.58476e-10 -2.90554 0.965183 -0.102902 1.97836e-10 -1.11082e-10 -3.58474e-10 -10.2786 0.731801 -0.0259123 1.97848e-10 -1.11076e-10 -3.58477e-10 -2.22167 -0.733487 0.20892 -2.03217e-16 0.0 -3.88251e-19 -3.14239 -14.0832 12.4278 0.00129259 11.1065 0.36135 -3.35069 -3.35756 -13.4646 2.03217e-16 0.0 3.88251e-19 8.41067 -10.051 0.404359 -0.0147815 12.6946 -0.319065 0.794098 -2.65498 -0.0278935
33.603 80.4196 137.232 -4.6938 -83.7575 22.0962 -5.46358 -24.0212 0.654513 -1.44705 4.25623 0.083894 2.97151 -7.94913 1.18434 4.18978 10.182 0.107013 -0.0 0.0 0.0 -0.0 0.0 0.0 -7.44909e-15 5.63505e-13 1.36329e-13 30.9309 -20.5649 11.7574 22.4436 -23.2485 -102.096 -0.98519 29.938 4.54414 3.68374e-10 3.93188e-10 -1.69866e-09 5.92525e-10 6.89828e-10 -2.93976e-09 3.68379e-10 3.9319e-10 -1.69867e-09 7.73091 5.47488 0.417314 3.68372e-10 3.9319e-10 -1.69865e-09 2.90554 0.965183 0.102902 3.68386e-10 3.93191e-10 -1.69866e-09 10.2786 0.731801 0.0259123 3.68374e-10 3.93192e-10 -1.69866e-09 2.22167 -0.733487 -0.20892 -7.54568e-15 5.63506e-13 1.36233e-13 -63.621 34.1251 5.34868 11.9974 -5.93913 -20.9953 1.21536 -33.0868 5.10416 1.08224e-10 -1.62026e-10 -5.21065e-10 2.01369e-10 -2.79086e-10 -8.99896e-10 1.08219e-10 -1.62029e-10 -5.2106e-10 -7.73091 5.47488 -0.417314 1.08222e-10 -1.62029e-10 -5.21062e-10 -2.90554 0.965183 -0.102902 1.08217e-10 -1.62029e-10 -5.21061e-10 -10.2786 0.731801 -0.0259123 1.0823e-10 -1.62023e-10 -5.21061e-10 -2.22167 -0.733487 0.20892 -2.03217e-16 0.0 -3.88251e-19 -1.76818 -19.15 18.6261 -0.0626551 17.1491 0.571613 -5.87507 -6.46515 -19.7855 2.03217e-16 0.0 3.88251e-19 13.5864 -10.2224 0.434361 -0.0164546 13.0374 -0.345604 0.947661 -2.82675 -0.0379394
33.6032 80.42 137.234 -4.6326 -83.7518 22.0345 -5.83818 -29.2598 0.844842 -1.57167 5.17482 0.132993 3.64994 -9.70399 1.46355 5.13286 12.4014 0.162602 -0.0 0.0 0.0 -0.0 0.0 0.0 -1.90611e-14 6.45453e-13 1.60618e-13 39.2253 -25.1288 14.9744 23.538 -49.9698 -104.715 -1.82377 35.3435 5.72009 2.87271e-10 5.14512e-10 -1.98492e-09 4.45849e-10 9.01255e-10 -3.43399e-09 2.87275e-10 5.14515e-10 -1.98493e-09 7.73091 5.47488 0.417314 2.87268e-10 5.14515e-10 -1.98491e-09 2.90554 0.965183 0.102902 2.87283e-10 5.14515e-10 -1.98492e-09 10.2786 0.731801 0.0259123 2.87272e-10 5.14516e-10 -1.98492e-09 2.22167 -0.733487 -0.20892 -1.91068e-14 6.45453e-13 1.60568e-13 -78.7163 41.5917 7.25304 14.0734 -7.01381 -25.7019 2.52368 -40.3592 6.85961 1.67615e-11 -1.96105e-10 -6.31652e-10 4.67076e-11 -3.38344e-10 -1.09198e-09 1.67556e-11 -1.96108e-10 -6.31649e-10 -7.73091 5.47488 -0.417314 1.67589e-11 -1.96108e-10 -6.31649e-10 -2.90554 0.965183 -0.102902 1.67538e-11 -1.96108e-10 -6.31648e-10 -10.2786 0.731801 -0.0259123 1.67661e-11 -1.96102e-10 -6.31649e-10 -2.22167 -0.733487 0.20892 -2.03217e-16 0.0 -3.88251e-19 -0.103068 -22.3585 23.2337 -0.13559 21.3597 0.729716 -8.04254 -8.43868 -24.2623 2.03217e-16 0.0 3.88251e-19 17.194 -10.3416 0.455262 -0.0174482 13.2759 -0.364307 1.05471 -2.94615 -0.0449562
33.6153 80.4204 137.234 -4.6559 -83.7448 22.0568 -5.96234 -31.2669 0.901581 -1.62679 5.51454 0.144862 3.88696 -10.4192 1.59807 5.56033 13.2466 0.243452 -0.0 0.0 0.0 -0.0 0.0 0.0 -2.57083e-14 6.02519e-13 1.59127e-13 43.1766 -27.4232 16.644 25.4432 -60.8893 -102.156 -1.96204 35.612 5.81619 4.30317e-11 6.68855e-10 -1.92943e-09 2.6983e-11 1.16764e-09 -3.33447e-09 4.30359e-11 6.68859e-10 -1.92944e-09 7.73091 5.47488 0.417314 4.30285e-11 6.68858e-10 -1.92942e-09 2.90554 0.965183 0.102902 4.30423e-11 6.68859e-10 -1.92943e-09 10.2786 0.731801 0.0259123 4.30318e-11 6.6886e-10 -1.92943e-09 2.22167 -0.733487 -0.20892 -2.5715e-14 6.02518e-13 1.59081e-13 -84.8745 44.6479 8.23791 14.8809 -7.43484 -27.6508 3.24389 -43.3935 7.73724 -1.18816e-10 -2.24216e-10 -7.26982e-10 -1.84051e-10 -3.89036e-10 -1.26033e-09 -1.18822e-10 -2.24218e-10 -7.26976e-10 -7.73091 5.47488 -0.417314 -1.18818e-10 -2.24218e-10 -7.2698e-10 -2.90554 0.965183 -0.102902 -1.18824e-10 -2.24218e-10 -7.26979e-10 -10.2786 0.731801 -0.0259123 -1.18812e-10 -2.24212e-10 -7.26982e-10 -2.22167 -0.733487 0.20892 -2.03217e-16 0.0 -3.88251e-19 0.705688 -23.5307 25.097 -0.171088 23.0061 0.794715 -8.97416 -9.15147 -26.0268 2.03217e-16 0.0 3.88251e-19 18.606 -10.3881 0.463385 -0.0178314 13.3683 -0.371929 1.09671 -2.99229 -0.0477272
33.6274 80.4204 137.234 -4.6706 -83.7394 22.0741 -5.92799 -30.9663 0.849933 -1.6314 5.44075 0.130062 3.80001 -10.3921 1.62709 5.62182 13.1104 0.341521 -0.0 0.0 0.0 -0.0 0.0 0.0 -2.88302e-14 4.70449e-13 1.39274e-13 43.7396 -28.1841 17.0506 24.9077 -59.8131 -103.037 -1.54098 32.2114 5.09928 -3.14329e-10 8.44689e-10 -1.63059e-09 -5.80441e-10 1.46966e-09 -2.81219e-09 -3.14325e-10 8.44691e-10 -1.63059e-09 7.73091 5.47488 0.417314 -3.14332e-10 8.44691e-10 -1.63058e-09 2.90554 0.965183 0.102902 -3.14322e-10 8.44692e-10 -1.63059e-09 10.2786 0.731801 0.0259123 -3.14331e-10 8.44693e-10 -1.63058e-09 2.22167 -0.733487 -0.20892 -2.88068e-14 4.70447e-13 1.39199e-13 -84.2911 44.5872 8.27536 14.8789 -7.4602 -27.6151 3.22947 -43.4289 7.73647 -2.83927e-10 -2.47224e-10 -8.08675e-10 -4.65838e-10 -4.3211e-10 -1.40692e-09 -2.83931e-10 -2.47224e-10 -8.08662e-10 -7.73091 5.47488 -0.417314 -2.83928e-10 -2.47224e-10 -8.08674e-10 -2.90554 0.965183 -0.102902 -2.83934e-10 -2.47224e-10 -8.08673e-10 -10.2786 0.731801 -0.0259123 -2.83923e-10 -2.47219e-10 -8.0868e-10 -2.22167 -0.733487 0.20892 -2.03217e-16 0.0 -3.88251e-19 0.607146 -23.4159 24.8642 -0.16703 22.8211 0.786806 -8.85983 -9.06047 -25.819 2.03217e-16 0.0 3.88251e-19 18.4497 -10.3825 0.462373 -0.0178597 13.3565 -0.371617 1.09225 -2.98609 -0.0474648
33.64 80.4201 137.235 -4.6786 -83.7337 22.0893 -5.82927 -29.7491 0.757735 -1.61291 5.2009 0.104863 3.58821 -10.0636 1.61204 5.52913 12.5878 0.440642 -0.0 0.0 0.0 -0.0 0.0 0.0 -3.12525e-14 3.04946e-13 1.13804e-13 42.9006 -28.3267 16.9337 23.615 -53.9151 -105.062 -1.02253 27.1528 4.13542 -6.02565e-10 9.58724e-10 -1.25993e-09 -1.06623e-09 1.66451e-09 -2.16646e-09 -6.02561e-10 9.58726e-10 -1.25993e-09 7.73091 5.47488 0.417314 -6.02567e-10 9.58727e-10 -1.25992e-09 2.90554 0.965183 0.102902 -6.02561e-10 9.58726e-10 -1.25993e-09 10.2786 0.731801 0.0259123 -6.0257e-10 9.58729e-10 -1.25992e-09 2.22167 -0.733487 -0.20892 -3.1213e-14 3.04944e-13 1.13689e-13 -80.9931 43.2515 7.90698 14.545 -7.32012 -26.7585 2.8972 -42.2202 7.35906 -3.94402e-10 -2.39956e-10 -7.92845e-10 -6.56273e-10 -4.21802e-10 -1.38369e-09 -3.94405e-10 -2.39954e-10 -7.92824e-10 -7.73091 5.47488 -0.417314 -3.94403e-10 -2.39955e-10 -7.92844e-10 -2.90554 0.965183 -0.102902 -3.94408e-10 -2.39955e-10 -7.92845e-10 -10.2786 0.731801 -0.0259123 -3.94398e-10 -2.39951e-10 -7.92855e-10 -2.22167 -0.733487 0.20892 -2.03217e-16 0.0 -3.88251e-19 0.147018 -22.7876 23.7961 -0.147165 21.9036 0.749712 -8.32876 -8.64725 -24.8246 2.03217e-16 0.0 3.88251e-19 17.6661 -10.356 0.457705 -0.0177511 13.3028 -0.368164 1.06922 -2.9589 -0.0459912
